PathFileType	4	(X/Y/Z)	Run_200 01
DataRate	CameraRate	NumFrames	NumMarkers	Units	OrigDataRate	OrigDataStartFrame	OrigNumFrames
120	120	5	42	mm	120	82	128
Frame#	Time	LASI			RASI			LPSI			RPSI			RTH1			RTH2			RTH3			LTH1			LTH2			LTH3			RTB1			RTB2			RTB3			LTB1			LTB2			LTB3			RCAL			RTOE			RMT5			LCAL			LTOE			LMT5			LACR			RACR			CLAV			C7			RUA1			RUA2			RUA3			RLEL			LUA1			LUA2			LUA3			LLEL			RFAsuperior			RFAradius			RFAulna			LFAsuperior			LFAradius			LFAulna			LMEL			RMEL		
		X1	Y1	Z1	X2	Y2	Z2	X3	Y3	Z3	X4	Y4	Z4	X5	Y5	Z5	X6	Y6	Z6	X7	Y7	Z7	X8	Y8	Z8	X9	Y9	Z9	X10	Y10	Z10	X11	Y11	Z11	X12	Y12	Z12	X13	Y13	Z13	X14	Y14	Z14	X15	Y15	Z15	X16	Y16	Z16	X17	Y17	Z17	X18	Y18	Z18	X19	Y19	Z19	X20	Y20	Z20	X21	Y21	Z21	X22	Y22	Z22	X23	Y23	Z23	X24	Y24	Z24	X25	Y25	Z25	X26	Y26	Z26	X27	Y27	Z27	X28	Y28	Z28	X29	Y29	Z29	X30	Y30	Z30	X31	Y31	Z31	X32	Y32	Z32	X33	Y33	Z33	X34	Y34	Z34	X35	Y35	Z35	X36	Y36	Z36	X37	Y37	Z37	X38	Y38	Z38	X39	Y39	Z39	X40	Y40	Z40	X41	Y41	Z41	X42	Y42	Z42	

82	  0.683333	1052.478675	975.487122	-431.724647	1042.557117	961.085037	-197.077085	881.851337	1000.606289	-372.273851	877.940912	995.540780	-276.179173	1021.720766	798.497094	-153.871032	1147.860523	692.268967	-176.467361	1126.961210	589.987016	-187.592799	1005.558478	804.041244	-497.321669	1098.962580	716.252990	-476.338471	1044.050980	581.048771	-457.964419	1105.669359	396.619038	-242.832200	1023.402221	411.383260	-188.737786	947.953985	310.659159	-244.969955	1071.348815	348.146498	-381.335298	994.768982	273.870654	-425.458387	966.515870	183.199449	-354.982594	761.927890	330.510053	-279.292407	872.031973	150.571413	-273.914967	833.480724	154.793588	-171.593957	801.917116	 93.144655	-352.056523	1003.786913	 70.986582	-299.914881	1003.769104	 40.348888	-406.050472	1052.666058	1424.128872	-526.824032	1022.859369	1433.164406	-158.157532	1105.776304	1383.672071	-310.603050	1001.195140	1473.646302	-353.565210	976.074089	1357.883212	-117.789148	958.817546	1272.592048	-128.669289	875.365935	1292.635493	-134.848921	816.439683	1198.179117	-109.044336	1018.464675	1346.770602	-577.900632	949.601017	1298.708810	-555.005721	997.235544	1244.173295	-600.317001	917.899509	1158.184690	-639.429325	864.382827	1119.709751	-79.686977	899.849674	936.299334	-79.870084	830.655319	933.173750	-96.056226	996.222350	1132.067941	-620.658718	1141.444413	1058.528871	-516.544687	1112.869756	1001.350581	-544.788961	878.044212	1154.079983	-576.428503	815.732679	1191.378294	-174.295840	
83	  0.691667	1050.575285	975.529666	-432.755283	1042.042070	962.744799	-198.591912	880.321199	1001.930766	-372.281871	877.031047	997.376883	-276.489599	1022.871553	800.970755	-153.635396	1151.538254	697.663655	-176.194253	1133.091079	595.318259	-187.423783	1002.532230	804.535654	-498.144059	1093.477694	714.763769	-476.630795	1035.746745	580.460976	-459.621825	1117.244735	399.242455	-242.520164	1034.594706	412.553745	-188.640001	963.510539	308.218292	-244.299742	1057.800107	346.823995	-382.255982	980.461938	273.229711	-425.899896	950.954703	183.177169	-355.141702	776.071822	319.990373	-279.764839	894.231886	145.253878	-271.563343	855.412763	149.411338	-169.129814	785.449131	 94.448219	-352.610389	987.167136	 71.166491	-300.249608	986.851749	 40.189549	-406.345158	1054.254590	1425.545891	-526.904250	1021.663226	1433.868637	-158.316082	1105.380556	1384.543116	-310.183010	1000.998421	1474.924904	-353.893923	973.969752	1358.836083	-118.545182	955.883751	1273.950604	-129.977127	872.689634	1295.002222	-138.242125	812.134142	1201.502069	-112.375082	1021.558532	1347.106672	-577.861069	953.393667	1297.520768	-554.583364	1002.244325	1244.331172	-599.780091	925.903720	1155.695055	-639.002342	857.360491	1122.188459	-81.875111	886.085194	936.926269	-80.431286	817.893196	936.268898	-99.136059	1004.717331	1131.889586	-619.050348	1150.575286	1064.318040	-511.137851	1124.623785	1006.034619	-539.887893	885.828770	1150.750588	-576.142376	813.019093	1194.119678	-177.354317	
84	  0.700000	1049.019468	976.226686	-433.978995	1041.512094	965.492096	-199.924341	878.990636	1004.332986	-372.619081	876.156159	1000.241279	-276.867533	1023.663424	804.563804	-153.330365	1154.583293	703.772585	-175.968576	1138.215344	601.396412	-187.528857	999.678179	805.551839	-498.910292	1086.755991	713.689926	-476.781425	1026.148031	580.787725	-460.516843	1128.361945	402.829169	-242.383793	1045.314665	413.773094	-188.775949	978.492257	305.817061	-243.932001	1043.203542	345.693758	-382.413272	965.063790	273.048636	-426.171700	935.151407	183.510925	-355.560620	790.823448	308.349193	-280.443221	917.429622	139.704473	-269.617129	878.094492	143.336481	-167.282386	769.016040	 96.270963	-353.190796	970.587669	 71.475542	-300.488195	969.905653	 40.104745	-406.552052	1056.059927	1428.498410	-526.813300	1020.541001	1435.747860	-158.495879	1105.020146	1386.538323	-309.646497	1000.875167	1477.241554	-354.098838	972.034266	1361.102919	-119.159564	952.840371	1276.748902	-131.116169	870.095189	1298.843786	-140.603706	807.708362	1206.361622	-115.497214	1024.694687	1349.324017	-577.729294	956.954032	1298.633579	-554.757761	1007.051271	1246.216565	-599.119351	933.119005	1155.335599	-638.169867	850.141941	1126.352445	-83.830661	873.831807	939.869913	-81.280540	806.860600	940.961611	-102.544768	1012.506361	1133.862176	-617.140653	1159.052346	1072.940836	-505.910940	1135.717133	1013.457935	-534.758719	893.114788	1149.649101	-575.358775	810.197103	1198.661457	-180.337706	
85	  0.708333	1047.902671	977.644688	-435.135642	1040.928466	969.141257	-200.976893	878.102164	1007.686639	-373.288719	875.507602	1003.997061	-277.410852	1023.643531	808.922092	-153.151971	1156.991235	710.435669	-175.928514	1142.359338	608.022058	-187.874281	996.402913	807.084404	-499.396027	1079.060017	713.137268	-476.737635	1015.042417	582.004653	-460.292039	1138.927283	407.326720	-242.436264	1055.471806	414.980670	-189.247767	993.055222	303.385566	-243.937849	1028.024358	345.171863	-382.400052	949.067449	273.716485	-426.392686	919.358850	184.450530	-356.297882	806.314813	295.727252	-281.418873	941.626404	134.204787	-268.009793	901.477402	136.887471	-165.845717	752.782641	 98.804684	-353.754983	954.102201	 71.938379	-300.501477	952.960488	 40.113853	-406.718437	1057.963396	1432.873075	-526.482810	1019.365202	1438.745341	-158.681706	1104.595400	1389.619725	-309.032509	1000.804576	1480.513576	-354.122144	970.083174	1364.685874	-119.670798	949.663890	1280.930511	-132.030300	867.490843	1304.007686	-142.015512	803.253026	1212.551242	-118.385303	1027.766023	1353.225141	-577.496677	960.249700	1301.688355	-555.386546	1011.701765	1249.622289	-598.311428	939.682689	1156.830264	-636.967597	843.014860	1131.982454	-85.611558	863.210737	944.828941	-82.198733	797.492445	946.967236	-105.963305	1019.666040	1137.846444	-614.922688	1166.722078	1083.939463	-500.795234	1145.976536	1023.222948	-529.606030	899.664006	1150.654644	-574.255793	807.206235	1204.740961	-183.196614	
86	  0.716667	1047.241833	979.771987	-436.179468	1040.355724	973.591849	-201.765695	877.760984	1011.858916	-374.269208	875.157471	1008.548927	-278.239007	1022.870140	813.806628	-153.127361	1158.771613	717.524526	-176.143462	1145.571525	615.026241	-188.399159	992.505216	809.249469	-499.548155	1070.866611	713.247703	-476.481207	1002.717477	584.064971	-458.962482	1148.855176	412.438848	-242.687527	1064.992795	416.079777	-190.131985	1007.647162	300.847046	-244.291911	1012.702941	345.753869	-382.545837	933.022245	275.484955	-426.603978	903.760811	186.192060	-357.113347	822.653544	282.320622	-282.744572	966.793369	129.037089	-266.645523	925.563426	130.373828	-164.661806	736.917179	102.193387	-354.237963	937.717330	 72.533989	-300.220785	936.025896	 40.230127	-406.816169	1059.837137	1438.479687	-525.896769	1018.109411	1442.743173	-158.828069	1104.094565	1393.712218	-308.376508	1000.783340	1484.643344	-353.942047	968.039237	1369.496987	-120.110993	946.448513	1286.312204	-132.725275	864.871469	1310.292240	-142.800894	798.904269	1219.832010	-121.011292	1030.739149	1358.461123	-577.142815	963.308657	1306.309381	-556.294320	1016.197460	1254.323596	-597.349920	945.727768	1159.884218	-635.541738	836.341194	1138.855989	-87.300672	854.125311	951.403957	-83.156383	789.600937	954.076248	-109.163742	1026.198103	1143.522628	-612.534416	1173.466101	1096.764552	-495.718897	1155.248300	1034.869216	-524.508113	905.357115	1153.654897	-572.976579	803.996449	1212.051392	-185.836574	
